<svg xmlns="http://www.w3.org/2000/svg" xmlns:xlink="http://www.w3.org/1999/xlink" width="500" zoomAndPan="magnify" viewBox="0 0 375 374.999991" height="500" preserveAspectRatio="xMidYMid meet" version="1.0"><defs><g/><clipPath id="4701d4d1d4"><path d="M 92 211 L 187 211 L 187 228 L 92 228 Z M 92 211 " clip-rule="nonzero"/></clipPath><clipPath id="e9d6e941d2"><path d="M 91.933594 219.921875 L 186.496094 208.496094 L 187.847656 219.664062 L 93.285156 231.089844 Z M 91.933594 219.921875 " clip-rule="nonzero"/></clipPath><clipPath id="7b6a8b41be"><path d="M 91.933594 219.921875 L 186.496094 208.496094 L 187.847656 219.664062 L 93.285156 231.089844 Z M 91.933594 219.921875 " clip-rule="nonzero"/></clipPath></defs><g fill="#c81d25" fill-opacity="1"><g transform="translate(65.094815, 210.789999)"><g><path d="M 9.96875 1.9375 C 17.421875 1.085938 23.105469 -4.328125 26.296875 -12.3125 C 27.34375 -6.351562 31.410156 -2.855469 37.414062 -3.542969 C 48.988281 -4.867188 57.210938 -22.078125 55.449219 -37.488281 C 54.042969 -49.785156 46.589844 -59.855469 28.140625 -57.746094 C 11.574219 -55.851562 1.125 -44.03125 2.539062 -31.660156 C 3.167969 -26.160156 6.855469 -21.453125 12.789062 -22.128906 C 19.804688 -22.933594 23.25 -32.558594 21.191406 -32.617188 C 19.597656 -32.4375 18.257812 -33.894531 18.019531 -35.992188 C 17.167969 -43.445312 23.53125 -47.398438 30.332031 -48.175781 C 40.316406 -49.316406 43.757812 -44.210938 44.460938 -38.0625 C 45.4375 -29.527344 41.996094 -19.238281 35.703125 -18.519531 C 33.242188 -18.238281 32.0625 -19.570312 31.847656 -21.449219 C 31.351562 -25.792969 35.554688 -36.460938 36.03125 -41.277344 C 36.265625 -43.722656 35.441406 -45.167969 32.402344 -44.820312 C 30.230469 -44.570312 28.746094 -43.449219 28.097656 -40.808594 C 27.222656 -37.558594 26.269531 -33.710938 25.410156 -30.316406 C 23.003906 -21.246094 17.710938 -16.902344 13.226562 -16.390625 C 9.246094 -15.933594 5.886719 -17.75 5.523438 -20.933594 C 5.464844 -21.441406 4.917969 -21.742188 4.339844 -21.675781 C -1.449219 -21.015625 -4.613281 -14.71875 -3.9375 -8.785156 C -3.25 -2.78125 1.070312 2.957031 9.96875 1.9375 Z M 9.96875 1.9375 "/></g></g></g><g fill="#c81d25" fill-opacity="1"><g transform="translate(123.977555, 204.05939)"><g><path d="M 10.066406 -40.800781 C 13.828125 -41.230469 16.628906 -43.019531 16.550781 -47.550781 C 16.402344 -52.078125 13.277344 -53.113281 9.589844 -52.691406 C 5.609375 -52.238281 2.527344 -50.347656 3.113281 -45.210938 C 3.550781 -41.375 6.59375 -40.40625 10.066406 -40.800781 Z M 6.511719 -0.746094 C 15.84375 -1.8125 18.851562 -16.519531 20.722656 -20.691406 C 21.296875 -22.078125 18.226562 -23.925781 17.269531 -22.054688 C 16.070312 -19.71875 14.859375 -18.117188 12.6875 -17.867188 C 10.734375 -17.644531 9.292969 -18.726562 9.019531 -21.113281 C 8.574219 -25.019531 11.285156 -30.167969 10.777344 -34.578125 C 10.515625 -36.894531 9.464844 -37.726562 7.945312 -37.554688 C 3.824219 -37.082031 1.527344 -30.882812 -0.601562 -20.011719 C -1.289062 -16.417969 -1.566406 -12.425781 -1.179688 -9.027344 C -0.597656 -3.960938 1.664062 -0.191406 6.511719 -0.746094 Z M 6.511719 -0.746094 "/></g></g></g><g fill="#c81d25" fill-opacity="1"><g transform="translate(141.772586, 202.025323)"><g><path d="M 27.46875 -23.222656 C 26.269531 -20.886719 24.933594 -19.121094 22.769531 -18.800781 C 21.316406 -23.179688 16.820312 -28.527344 16.664062 -29.902344 C 16.332031 -32.796875 21.589844 -33.617188 21.253906 -35.921875 C 21.058594 -38.246094 18.59375 -40.601562 14.105469 -40.089844 C 7.886719 -39.378906 3.980469 -28.011719 -0.363281 -20.480469 L -0.601562 -20.011719 C -4.117188 -12.28125 -1.164062 0.0585938 11.566406 -1.394531 C 25.023438 -2.933594 29.386719 -17.359375 30.929688 -21.785156 C 31.425781 -23.234375 28.425781 -25.089844 27.46875 -23.222656 Z M 7.257812 -16 C 4.871094 -15.726562 3.058594 -16.839844 2.859375 -18.578125 C 4.285156 -20.863281 6.1875 -24.085938 7.691406 -26.972656 C 8.234375 -27.984375 8.8125 -28.050781 9.425781 -27.167969 C 10.664062 -25.332031 11.449219 -23.589844 11.648438 -21.851562 C 11.988281 -18.886719 10.441406 -16.363281 7.257812 -16 Z M 7.257812 -16 "/></g></g></g><g fill="#c81d25" fill-opacity="1"><g transform="translate(169.767202, 198.82539)"><g><path d="M 12.734375 -1.457031 C 21.199219 -2.421875 28.226562 -9.53125 33.246094 -22.050781 C 33.882812 -23.515625 30.742188 -25.355469 29.785156 -23.488281 C 24.109375 -12.871094 9.789062 -11.820312 8.679688 -21.515625 C 8.269531 -25.132812 9.761719 -28.746094 13.015625 -29.117188 C 15.1875 -29.367188 16.121094 -28.226562 16.269531 -26.925781 C 16.570312 -24.320312 14.9375 -23.839844 15.078125 -22.613281 C 15.1875 -21.671875 16.539062 -20.726562 19.070312 -21.015625 C 22.183594 -21.371094 26.171875 -24.320312 25.460938 -30.542969 C 24.921875 -35.242188 21.402344 -39.09375 14.457031 -38.296875 C 3.027344 -36.992188 -2.554688 -24.261719 -1.394531 -14.132812 C -0.535156 -6.609375 4.050781 -0.464844 12.734375 -1.457031 Z M 12.734375 -1.457031 "/></g></g></g><g fill="#c81d25" fill-opacity="1"><g transform="translate(200.148961, 195.352594)"><g><path d="M 33.835938 -23.949219 C 32.386719 -21.21875 30.550781 -19.984375 28.453125 -19.742188 L 27.945312 -19.683594 C 28.398438 -22.15625 28.46875 -24.730469 28.179688 -27.261719 C 27.136719 -36.375 22.128906 -39.175781 16.195312 -38.496094 C 4.691406 -37.183594 -2.195312 -23.054688 -0.957031 -12.203125 C -0.09375 -4.679688 5.136719 -0.585938 11.648438 -1.332031 C 17.074219 -1.953125 21.847656 -5.722656 24.902344 -11.054688 L 25.769531 -11.152344 C 32.789062 -11.957031 35.703125 -17.859375 37.296875 -22.511719 C 37.902344 -24.269531 34.5625 -25.277344 33.835938 -23.949219 Z M 14.058594 -16.777344 C 11.3125 -16.464844 10.089844 -18.15625 9.851562 -20.253906 C 9.488281 -23.4375 11.46875 -27.257812 15.015625 -27.660156 C 17.835938 -27.984375 19.191406 -26.378906 19.433594 -24.28125 C 19.777344 -21.242188 17.675781 -17.191406 14.058594 -16.777344 Z M 14.058594 -16.777344 "/></g></g></g><g fill="#c81d25" fill-opacity="1"><g transform="translate(234.581619, 191.416758)"><g><path d="M 31.664062 -23.703125 C 30.21875 -20.972656 28.378906 -19.734375 26.28125 -19.496094 C 25.269531 -19.378906 24.382812 -19.425781 23.628906 -19.632812 C 28.191406 -31.660156 28.113281 -40.007812 22.039062 -39.3125 C 17.046875 -38.742188 15.421875 -33.058594 16.152344 -26.691406 C 16.414062 -24.378906 16.953125 -22.238281 17.714844 -20.054688 C 17.117188 -18.886719 15.796875 -16.976562 12.757812 -16.628906 C 9.792969 -16.289062 8.289062 -17.878906 7.976562 -20.628906 C 7.488281 -24.894531 10.117188 -30.765625 9.652344 -34.816406 C 9.414062 -36.914062 8.527344 -37.621094 7.078125 -37.453125 C 3.101562 -37 0.195312 -27.800781 -0.746094 -19.996094 C -1.964844 -10.769531 1.078125 -0.195312 8.816406 -1.082031 C 13.230469 -1.585938 17.054688 -5.980469 20.074219 -11.601562 C 21.171875 -10.996094 22.371094 -10.765625 23.597656 -10.90625 C 30.617188 -11.707031 33.535156 -17.613281 35.125 -22.265625 C 35.734375 -24.019531 32.390625 -25.03125 31.664062 -23.703125 Z M 31.664062 -23.703125 "/></g></g></g><g fill="#c81d25" fill-opacity="1"><g transform="translate(266.844166, 187.728978)"><g><path d="M 13.601562 -1.554688 C 21.992188 -2.515625 28.949219 -9.613281 33.96875 -22.132812 C 34.609375 -23.597656 31.464844 -25.4375 30.507812 -23.570312 C 27.820312 -18.203125 22.25 -15.003906 17.332031 -14.441406 C 13.207031 -13.96875 9.660156 -14.882812 9.371094 -17.414062 C 9.261719 -18.355469 9.960938 -18.65625 10.5 -18.421875 C 12.273438 -17.671875 14.25 -17.679688 16.277344 -17.910156 C 23.367188 -18.722656 27.246094 -25.175781 26.640625 -30.457031 C 26.097656 -35.230469 22.632812 -39.234375 15.90625 -38.464844 C -4.859375 -36.089844 -6.726562 0.769531 13.601562 -1.554688 Z M 13.773438 -23.121094 C 11.460938 -22.859375 10.21875 -24.109375 10.035156 -25.699219 C 9.8125 -27.652344 11.308594 -29.949219 14.128906 -30.273438 C 16.371094 -30.527344 17.613281 -29.277344 17.796875 -27.6875 C 18.003906 -25.878906 16.597656 -23.445312 13.773438 -23.121094 Z M 13.773438 -23.121094 "/></g></g></g><g fill="#c81d25" fill-opacity="1"><g transform="translate(297.94931, 184.173495)"><g><path d="M 27.976562 -23.28125 C 26.777344 -20.945312 25.574219 -19.265625 23.40625 -19.019531 C 20.148438 -18.648438 18.746094 -20.027344 18.515625 -22.050781 C 18 -26.535156 20.765625 -29.929688 20.292969 -34.054688 C 19.847656 -37.960938 12.371094 -41.796875 5.570312 -41.019531 C 1.664062 -40.574219 -0.460938 -36.738281 -0.121094 -33.773438 C 0.175781 -31.167969 1.222656 -30.335938 2.726562 -29.996094 C 1.878906 -26.527344 0.550781 -22.125 -0.601562 -20.011719 C -1.386719 -18.53125 2.136719 -16.589844 2.859375 -18.578125 C 3.746094 -21.097656 5.570312 -26.289062 6.542969 -29.332031 C 9.558594 -28.578125 10.707031 -26.875 10.789062 -26.152344 C 11.1875 -22.679688 6.898438 -15.300781 7.667969 -8.570312 C 8.089844 -4.882812 10.5625 -1.207031 16.496094 -1.886719 C 26.261719 -3 29.578125 -17.597656 31.4375 -21.84375 C 32.074219 -23.308594 28.933594 -25.148438 27.976562 -23.28125 Z M 27.976562 -23.28125 "/></g></g></g><g clip-path="url(#4701d4d1d4)"><g clip-path="url(#e9d6e941d2)"><g clip-path="url(#7b6a8b41be)"><path fill="#c81d25" d="M 118.679688 227.664062 C 110.054688 228.523438 100.421875 227.988281 93.859375 221.625 C 93.304688 221.179688 92.070312 219.90625 92.941406 220.109375 C 94.046875 220.601562 95.359375 221.742188 96.5625 221.882812 C 101.328125 222.941406 106.289062 222.375 111.09375 221.878906 C 125.875 219.773438 140.386719 216.09375 155.15625 213.875 C 162.785156 212.773438 170.480469 211.265625 178.199219 211.285156 C 181.09375 212.261719 183.574219 214.445312 185.597656 216.6875 C 187.230469 218.464844 185.019531 218.375 183.691406 218.625 C 180.960938 219.011719 178.214844 219.253906 175.472656 219.546875 C 156.414062 221.324219 137.683594 225.5 118.679688 227.664062 Z M 118.679688 227.664062 " fill-opacity="1" fill-rule="nonzero"/></g></g></g><g fill="#c81d25" fill-opacity="1"><g transform="translate(216.436845, 214.715009)"><g><path d="M -0.351562 -9.832031 C -0.332031 -9.652344 -0.304688 -9.546875 -0.269531 -9.261719 C -0.246094 -9.046875 -0.242188 -8.847656 -0.21875 -8.632812 C -0.199219 -8.457031 -0.179688 -8.292969 -0.160156 -8.117188 L 0.0546875 -6.238281 C 0.167969 -5.21875 0.277344 -5.210938 0.3125 -4.417969 C 0.332031 -4.09375 0.335938 -3.734375 0.375 -3.394531 L 0.453125 -2.714844 C 0.511719 -2.214844 0.558594 -2.109375 0.585938 -1.695312 C 0.601562 -1.390625 0.59375 -1.152344 0.625 -0.886719 C 0.660156 -0.5625 0.714844 -0.40625 0.855469 -0.296875 C 1.074219 -0.121094 1.476562 -0.09375 1.722656 -0.140625 L 2.933594 -0.332031 L 3.792969 -0.429688 C 3.863281 -0.4375 3.953125 -0.429688 4.027344 -0.4375 C 4.117188 -0.449219 4.222656 -0.460938 4.3125 -0.46875 C 4.417969 -0.484375 4.546875 -0.480469 4.652344 -0.492188 C 4.816406 -0.507812 5.082031 -0.539062 5.292969 -0.761719 C 5.472656 -0.945312 5.476562 -1.238281 5.476562 -1.382812 C 5.472656 -1.433594 5.464844 -1.488281 5.460938 -1.542969 C 5.414062 -1.773438 5.441406 -1.539062 5.335938 -1.980469 C 5.265625 -2.300781 5.207031 -2.492188 5.183594 -2.6875 C 5.152344 -2.957031 5.160156 -3.230469 5.148438 -3.5 C 5.132812 -3.625 5.117188 -3.75 5.105469 -3.875 C 5.101562 -3.910156 5.097656 -3.945312 5.09375 -3.984375 C 5.007812 -4.714844 4.976562 -4.511719 4.914062 -5.066406 L 4.742188 -6.605469 C 4.714844 -6.839844 4.710938 -7.035156 4.714844 -7.164062 C 4.714844 -7.308594 4.683594 -7.902344 4.660156 -8.101562 C 4.589844 -8.746094 4.402344 -9.410156 4.371094 -9.859375 L 4.339844 -10.472656 C 4.324219 -10.597656 4.339844 -10.761719 4.308594 -11.050781 C 4.300781 -11.140625 4.285156 -11.246094 4.277344 -11.335938 C 4.238281 -11.675781 4.191406 -12.105469 3.800781 -12.351562 C 3.410156 -12.578125 2.804688 -12.492188 2.378906 -12.40625 L 2.042969 -12.332031 C 1.9375 -12.300781 1.550781 -12.222656 1.300781 -12.195312 C 0.796875 -12.136719 0.574219 -12.203125 0.199219 -12.160156 C -0.140625 -12.121094 -0.277344 -12.035156 -0.386719 -11.894531 C -0.546875 -11.695312 -0.613281 -11.488281 -0.558594 -11.167969 Z M -0.351562 -9.832031 "/></g></g></g><g fill="#c81d25" fill-opacity="1"><g transform="translate(222.696767, 214.005663)"><g><path d="M 7.019531 -11.445312 C 6.988281 -11.714844 7.003906 -11.898438 6.980469 -12.09375 C 6.921875 -12.613281 6.253906 -12.753906 6.085938 -12.789062 C 5.640625 -12.902344 5.566406 -12.914062 5.226562 -12.875 C 5.066406 -12.855469 4.867188 -12.851562 4.703125 -12.832031 C 4.453125 -12.804688 4.214844 -12.851562 3.964844 -12.820312 C 1.800781 -12.578125 0.984375 -12.085938 0.554688 -11.730469 C 0.121094 -11.390625 -0.367188 -10.753906 -0.527344 -10.265625 C -0.597656 -10.058594 -0.660156 -9.835938 -0.734375 -9.519531 C -0.785156 -9.332031 -0.867188 -9.085938 -0.816406 -8.65625 C -0.789062 -8.386719 -0.703125 -7.964844 -0.644531 -7.769531 C -0.5 -7.28125 -0.1875 -6.773438 -0.101562 -6.636719 C -0.0117188 -6.503906 0.125 -6.410156 0.328125 -6.214844 C 0.671875 -5.890625 0.78125 -5.722656 1.261719 -5.488281 C 1.757812 -5.253906 2.050781 -5.085938 2.316406 -4.972656 C 2.601562 -4.859375 3.335938 -4.597656 3.617188 -4.539062 L 4.097656 -4.433594 C 4.265625 -4.394531 4.335938 -4.257812 4.34375 -4.207031 C 4.355469 -4.082031 4.3125 -3.839844 3.898438 -3.792969 C 3.808594 -3.78125 3.699219 -3.789062 3.589844 -3.792969 C 2.972656 -3.816406 3.171875 -3.820312 2.972656 -3.832031 C 2.734375 -3.859375 2.773438 -3.828125 2.292969 -3.902344 C 2.035156 -3.925781 2 -3.921875 1.800781 -3.917969 C 1.402344 -3.925781 1.0625 -4.050781 0.742188 -4.015625 C 0.347656 -3.96875 -0.0742188 -3.542969 0.125 -2.730469 L 0.195312 -2.449219 L 0.226562 -2.144531 C 0.375 -0.839844 0.253906 -0.625 0.722656 -0.335938 C 0.898438 -0.230469 1.007812 -0.203125 1.535156 -0.210938 C 1.914062 -0.21875 2.296875 -0.207031 2.640625 -0.207031 C 4.089844 -0.191406 4.113281 -0.304688 4.832031 -0.367188 C 5.011719 -0.386719 5.171875 -0.386719 5.351562 -0.40625 C 5.761719 -0.453125 6.703125 -0.632812 7.15625 -0.9375 C 7.628906 -1.261719 7.953125 -1.589844 8.214844 -1.855469 C 8.390625 -2.039062 8.503906 -2.160156 8.675781 -2.414062 C 8.8125 -2.628906 9.007812 -3.011719 9.035156 -3.25 C 9.050781 -3.5625 9.023438 -3.992188 9.015625 -4.191406 C 9.003906 -4.460938 9.042969 -4.613281 9.023438 -4.773438 C 9.011719 -4.898438 8.875 -5.300781 8.824219 -5.421875 C 8.742188 -5.664062 8.59375 -5.847656 8.457031 -6.101562 C 8.320312 -6.339844 8.261719 -6.535156 7.976562 -6.808594 C 7.714844 -7.070312 7.28125 -7.347656 7.089844 -7.46875 C 6.71875 -7.679688 6.417969 -7.792969 6 -7.960938 C 5.296875 -8.261719 5.425781 -8.242188 5.257812 -8.277344 C 4.960938 -8.332031 4.652344 -8.351562 4.351562 -8.445312 C 4.3125 -8.460938 4.257812 -8.472656 4.21875 -8.484375 C 4.089844 -8.507812 4.132812 -8.457031 3.910156 -8.667969 C 3.871094 -8.699219 3.828125 -8.75 3.820312 -8.820312 C 3.804688 -8.964844 3.910156 -8.992188 4.007812 -9.058594 C 4.09375 -9.105469 4.164062 -9.148438 4.378906 -9.171875 C 4.464844 -9.183594 4.542969 -9.15625 4.617188 -9.144531 C 4.726562 -9.121094 4.835938 -9.117188 4.945312 -9.109375 C 5.019531 -9.101562 5.089844 -9.109375 5.164062 -9.117188 C 5.25 -9.128906 5.339844 -9.136719 5.433594 -9.128906 C 5.6875 -9.121094 6.152344 -9.011719 6.386719 -9.039062 C 6.546875 -9.054688 6.753906 -9.152344 6.945312 -9.355469 C 7.347656 -9.800781 7.121094 -10.207031 7.0625 -10.890625 Z M 7.019531 -11.445312 "/></g></g></g><g fill="#c81d25" fill-opacity="1"><g transform="translate(232.301266, 212.917323)"><g><path d="M -1.0625 -9.0625 C -1.035156 -8.667969 -0.929688 -8.535156 -0.871094 -8.46875 C -0.683594 -8.253906 -0.550781 -8.234375 0.207031 -8.246094 L 0.621094 -8.257812 C 0.804688 -8.261719 0.980469 -8.300781 1.160156 -8.15625 C 1.316406 -8.046875 1.472656 -7.777344 1.492188 -7.46875 L 1.574219 -6.265625 C 1.59375 -6.066406 1.632812 -6.035156 1.675781 -5.679688 C 1.691406 -5.535156 1.710938 -5.375 1.710938 -4.886719 C 1.738281 -3.855469 1.796875 -3.953125 1.832031 -3.667969 L 1.960938 -2.667969 C 2.132812 -1.328125 1.976562 -2.054688 2.09375 -1.035156 C 2.109375 -0.890625 2.128906 -0.730469 2.367188 -0.523438 C 2.570312 -0.34375 2.757812 -0.292969 3.132812 -0.335938 C 3.488281 -0.378906 3.34375 -0.378906 3.773438 -0.425781 L 4.542969 -0.515625 C 5.1875 -0.585938 5.371094 -0.570312 5.710938 -0.609375 C 6.40625 -0.691406 6.472656 -0.734375 6.679688 -1.011719 C 6.835938 -1.226562 6.875 -1.339844 6.84375 -1.644531 C 6.820312 -1.824219 6.773438 -1.945312 6.742188 -2.050781 C 6.6875 -2.207031 6.628906 -2.417969 6.601562 -2.648438 L 6.410156 -4.347656 C 6.320312 -5.117188 6.238281 -5.6875 6.253906 -6.199219 C 6.257812 -6.308594 6.257812 -6.488281 6.234375 -6.683594 C 6.214844 -6.863281 6.171875 -6.929688 6.105469 -7.503906 C 6.042969 -8.074219 6.015625 -8.472656 6.292969 -8.738281 C 6.488281 -8.921875 6.824219 -9.015625 7.109375 -9.046875 C 7.429688 -9.085938 7.417969 -9.027344 7.792969 -9.070312 C 8.042969 -9.101562 8.179688 -9.1875 8.246094 -9.25 C 8.421875 -9.449219 8.402344 -9.628906 8.390625 -9.738281 C 8.347656 -10.113281 8.269531 -10.464844 8.210938 -10.839844 C 8.191406 -11 8.15625 -11.140625 8.15625 -11.304688 C 8.152344 -11.503906 8.164062 -11.867188 8.128906 -12.1875 C 8.105469 -12.402344 8.019531 -12.664062 7.789062 -12.785156 C 7.578125 -12.90625 7.136719 -12.945312 6.691406 -12.894531 C 5.347656 -12.742188 5.898438 -12.695312 4.984375 -12.613281 L 2.527344 -12.386719 C 1.917969 -12.335938 1.941406 -12.285156 1.28125 -12.210938 L 0.976562 -12.175781 C 0.902344 -12.167969 0.796875 -12.15625 0.433594 -12.148438 C 0.164062 -12.136719 -0.144531 -12.15625 -0.433594 -12.125 C -0.539062 -12.113281 -0.96875 -12.0625 -1.160156 -11.84375 C -1.324219 -11.679688 -1.34375 -11.367188 -1.3125 -11.117188 C -1.300781 -11.011719 -1.242188 -10.636719 -1.207031 -10.480469 C -1.179688 -10.410156 -1.175781 -10.375 -1.167969 -10.300781 L -1.128906 -9.960938 Z M -1.0625 -9.0625 "/></g></g></g><g fill="#c81d25" fill-opacity="1"><g transform="translate(241.619606, 211.861411)"><g><path d="M 0.859375 -8.558594 C 0.628906 -7.570312 0.691406 -7.34375 0.644531 -6.777344 C 0.605469 -6.320312 0.515625 -5.855469 0.398438 -5.261719 C 0.273438 -4.632812 0.277344 -4.578125 0.210938 -4.226562 C 0.171875 -4.078125 0.0976562 -3.777344 0.0429688 -3.464844 C -0.0976562 -2.777344 -0.128906 -2.414062 -0.15625 -2.191406 C -0.207031 -1.824219 -0.265625 -1.707031 -0.316406 -1.503906 C -0.351562 -1.335938 -0.367188 -1.152344 -0.347656 -0.976562 C -0.300781 -0.582031 -0.148438 -0.34375 0.0078125 -0.238281 C 0.347656 0.015625 0.855469 -0.113281 1.269531 -0.144531 L 2.328125 -0.226562 L 2.703125 -0.269531 C 3.421875 -0.351562 2.929688 -0.351562 3.542969 -0.402344 C 3.628906 -0.410156 3.722656 -0.402344 3.808594 -0.433594 C 3.898438 -0.460938 4.066406 -0.550781 4.132812 -0.632812 C 4.195312 -0.691406 4.21875 -0.804688 4.347656 -1.109375 L 4.578125 -1.640625 C 4.59375 -1.660156 4.609375 -1.699219 4.625 -1.71875 C 4.640625 -1.738281 4.636719 -1.757812 4.652344 -1.777344 C 4.746094 -1.933594 4.957031 -1.976562 5.117188 -1.992188 C 5.226562 -2.003906 5.28125 -1.992188 5.660156 -2.019531 L 6.269531 -2.050781 C 6.757812 -2.070312 7.148438 -2.296875 7.597656 -2.183594 C 7.914062 -2.109375 8.023438 -1.921875 8.15625 -1.722656 L 8.332031 -1.433594 C 8.535156 -1.09375 8.761719 -1.011719 8.890625 -0.988281 C 9.113281 -0.960938 9.585938 -1.105469 10.335938 -1.171875 L 11.429688 -1.277344 C 11.503906 -1.285156 11.554688 -1.292969 11.628906 -1.300781 C 11.699219 -1.308594 11.773438 -1.296875 11.84375 -1.304688 C 11.898438 -1.3125 11.933594 -1.316406 11.988281 -1.320312 C 12.484375 -1.398438 12.578125 -1.535156 12.652344 -1.707031 C 12.753906 -1.917969 12.730469 -1.949219 12.714844 -2.09375 C 12.710938 -2.128906 12.703125 -2.183594 12.699219 -2.21875 C 12.691406 -2.289062 12.613281 -2.515625 12.519531 -2.703125 C 12.453125 -2.804688 12.40625 -2.890625 12.332031 -3.0625 C 12.285156 -3.167969 12.238281 -3.253906 12.210938 -3.339844 C 11.984375 -3.894531 11.847656 -4.476562 11.585938 -5.027344 L 11.441406 -5.335938 C 11.175781 -5.921875 11.101562 -6.113281 10.933594 -6.621094 C 10.609375 -7.5625 10.558594 -7.699219 10.507812 -7.820312 L 10.414062 -8.007812 C 10.273438 -8.300781 10.316406 -8.234375 10.230469 -8.367188 C 10.207031 -8.402344 10.183594 -8.4375 10.164062 -8.46875 C 10.136719 -8.558594 10.113281 -8.589844 9.980469 -8.976562 L 9.71875 -9.667969 C 9.589844 -10.015625 9.40625 -10.359375 9.222656 -10.683594 C 9.109375 -10.886719 8.996094 -11.109375 8.914062 -11.335938 L 8.785156 -11.683594 C 8.605469 -12.132812 8.453125 -12.535156 8.105469 -12.730469 C 7.734375 -12.941406 7.265625 -12.925781 7.035156 -12.898438 C 6.855469 -12.878906 6.660156 -12.835938 6.480469 -12.816406 C 6.25 -12.789062 5.605469 -12.71875 5.316406 -12.703125 L 5.011719 -12.6875 L 4.453125 -12.640625 C 4.3125 -12.625 4.1875 -12.59375 4.046875 -12.578125 C 3.921875 -12.5625 3.78125 -12.527344 3.652344 -12.515625 C 2.910156 -12.375 3.578125 -12.542969 2.652344 -12.402344 C 2.296875 -12.34375 1.996094 -12.289062 1.765625 -12.082031 C 1.46875 -11.816406 1.355469 -11.367188 1.335938 -11.238281 C 1.195312 -10.550781 1.101562 -9.617188 1.015625 -9.246094 Z M 5.226562 -5.828125 C 5.121094 -5.816406 4.976562 -5.816406 4.867188 -5.949219 C 4.804688 -6.035156 4.785156 -6.195312 4.78125 -6.246094 C 4.765625 -6.390625 4.832031 -6.453125 4.863281 -6.78125 C 4.894531 -7.003906 4.890625 -7.203125 4.921875 -7.386719 C 4.957031 -7.574219 5.007812 -7.777344 5.0625 -8.074219 C 5.082031 -8.21875 5.113281 -8.421875 5.195312 -8.503906 C 5.210938 -8.523438 5.292969 -8.605469 5.398438 -8.617188 C 5.472656 -8.625 5.5625 -8.621094 5.640625 -8.554688 C 5.722656 -8.492188 5.828125 -8.339844 5.875 -8.257812 C 5.949219 -8.101562 6.300781 -7.21875 6.359375 -7.042969 L 6.515625 -6.589844 C 6.570312 -6.449219 6.621094 -6.3125 6.53125 -6.15625 C 6.4375 -6.019531 6.28125 -5.945312 5.65625 -5.875 Z M 5.226562 -5.828125 "/></g></g></g><g fill="#c81d25" fill-opacity="1"><g transform="translate(254.157325, 210.440692)"><g><path d="M -0.300781 -9.042969 C -0.214844 -8.4375 -0.269531 -8.285156 -0.140625 -7.011719 C -0.109375 -6.726562 -0.078125 -6.457031 -0.046875 -6.171875 C 0.160156 -4.492188 0.140625 -5.488281 0.292969 -4.128906 L 0.390625 -3.25 C 0.476562 -2.5 0.554688 -1.964844 0.535156 -1.527344 C 0.527344 -1.4375 0.523438 -1.308594 0.546875 -1.09375 C 0.550781 -0.734375 0.734375 -0.535156 0.859375 -0.421875 C 1.136719 -0.203125 1.539062 -0.15625 2.238281 -0.234375 C 2.453125 -0.261719 2.699219 -0.324219 2.929688 -0.351562 C 3.179688 -0.398438 3.285156 -0.410156 3.429688 -0.425781 L 3.804688 -0.46875 C 4.46875 -0.542969 4.722656 -0.535156 5.402344 -0.613281 C 7.316406 -0.828125 8.210938 -1.21875 9.6875 -2.128906 C 10.195312 -2.441406 11.359375 -3.1875 11.859375 -5.183594 C 12.03125 -5.875 12.050781 -6.835938 11.972656 -7.535156 C 11.898438 -8.179688 11.667969 -9.113281 11.335938 -9.617188 C 11.160156 -9.90625 10.03125 -11.082031 9.691406 -11.351562 C 9.152344 -11.78125 8.65625 -11.867188 8.242188 -12.003906 C 7.675781 -12.191406 7.550781 -12.339844 7.117188 -12.472656 C 6.726562 -12.589844 6.304688 -12.617188 5.542969 -12.636719 C 4.945312 -12.644531 3.597656 -12.542969 2.882812 -12.464844 C 1.753906 -12.335938 2.175781 -12.273438 1.425781 -12.207031 L 0.277344 -12.113281 C -0.03125 -12.097656 -0.277344 -11.886719 -0.359375 -11.789062 C -0.597656 -11.527344 -0.566406 -11.058594 -0.539062 -10.84375 Z M 4.507812 -7.050781 C 4.46875 -7.226562 4.429688 -7.601562 4.625 -7.933594 C 4.703125 -8.070312 4.796875 -8.171875 5.066406 -8.199219 C 5.261719 -8.222656 5.429688 -8.207031 5.648438 -8.195312 C 5.773438 -8.191406 5.808594 -8.195312 5.863281 -8.199219 C 6.3125 -8.25 6.621094 -8.070312 6.796875 -7.945312 C 7.136719 -7.691406 7.3125 -7.40625 7.371094 -6.886719 C 7.398438 -6.652344 7.378906 -6.507812 7.359375 -6.339844 C 7.277344 -5.804688 6.941406 -5.550781 6.769531 -5.476562 C 6.738281 -5.457031 6.683594 -5.449219 6.648438 -5.425781 C 6.632812 -5.425781 6.632812 -5.425781 6.613281 -5.421875 C 6.597656 -5.402344 6.546875 -5.378906 6.511719 -5.355469 C 6.441406 -5.332031 6.390625 -5.324219 6.335938 -5.300781 C 6.230469 -5.289062 6.105469 -5.273438 5.949219 -5.203125 C 5.878906 -5.175781 5.675781 -5.082031 5.410156 -5.015625 C 5.390625 -5.011719 5.355469 -5.007812 5.339844 -5.007812 C 5.175781 -5.007812 5.027344 -5.027344 4.921875 -5.160156 C 4.777344 -5.324219 4.726562 -5.609375 4.710938 -5.734375 C 4.707031 -5.785156 4.703125 -5.824219 4.695312 -5.875 C 4.6875 -5.964844 4.695312 -6.058594 4.683594 -6.144531 C 4.671875 -6.234375 4.648438 -6.304688 4.636719 -6.394531 Z M 4.507812 -7.050781 "/></g></g></g><g fill="#c81d25" fill-opacity="1"><g transform="translate(267.016989, 208.983492)"><g><path d="M 0.742188 -4.324219 C 0.480469 -4.238281 0.328125 -4.132812 0.292969 -3.980469 C 0.246094 -3.886719 0.1875 -3.300781 0.199219 -3.210938 L 0.328125 -2.554688 L 0.316406 -2.15625 L 0.414062 -1.769531 L 0.441406 -1.0625 C 0.445312 -1.011719 0.664062 -0.382812 0.707031 -0.316406 C 0.816406 -0.164062 0.984375 -0.09375 1.21875 -0.101562 L 2.378906 -0.25 C 2.6875 -0.269531 2.867188 -0.289062 2.9375 -0.296875 C 3.007812 -0.304688 3.148438 -0.339844 3.378906 -0.382812 L 4.007812 -0.4375 C 4.167969 -0.453125 4.308594 -0.507812 4.445312 -0.578125 C 4.691406 -0.804688 4.804688 -1.085938 4.765625 -1.425781 L 4.710938 -1.894531 C 4.671875 -2.085938 4.644531 -2.335938 4.613281 -2.605469 C 4.582031 -2.890625 4.554688 -3.144531 4.546875 -3.339844 L 4.496094 -3.789062 C 4.453125 -4.199219 4.238281 -4.464844 3.882812 -4.589844 C 3.769531 -4.628906 3.445312 -4.609375 2.90625 -4.550781 C 2.671875 -4.542969 2.53125 -4.527344 2.476562 -4.519531 C 2.386719 -4.507812 2.210938 -4.472656 1.910156 -4.417969 Z M 0.742188 -4.324219 "/></g></g></g><g fill="#c81d25" fill-opacity="1"><g transform="translate(272.454173, 208.367374)"><g><path d="M 8.523438 -3.59375 C 8.496094 -3.84375 8.488281 -4.242188 8.460938 -4.457031 C 8.4375 -4.6875 8.378906 -5.027344 8.195312 -5.222656 C 7.96875 -5.46875 7.570312 -5.460938 7.496094 -5.449219 C 7.445312 -5.445312 7.410156 -5.441406 7.355469 -5.433594 C 7.195312 -5.398438 6.421875 -5.203125 6.210938 -5.140625 C 5.886719 -5.105469 5.398438 -5.105469 5.097656 -5.214844 C 4.34375 -5.472656 4.148438 -6.25 4.105469 -6.625 C 4.054688 -7.054688 4.28125 -7.476562 4.507812 -7.703125 C 4.636719 -7.824219 4.835938 -7.992188 5.171875 -8.066406 C 5.492188 -8.140625 5.621094 -8.101562 6.046875 -8.183594 L 6.597656 -8.285156 C 6.863281 -8.332031 6.855469 -8.257812 7.265625 -8.304688 C 7.460938 -8.328125 7.617188 -8.382812 7.742188 -8.558594 C 8.058594 -8.992188 7.734375 -9.609375 7.632812 -10.484375 L 7.582031 -10.929688 C 7.539062 -11.308594 7.589844 -11.367188 7.546875 -11.90625 C 7.535156 -11.996094 7.527344 -12.066406 7.515625 -12.15625 C 7.492188 -12.371094 7.445312 -12.457031 7.421875 -12.507812 C 7.109375 -13.050781 5.617188 -12.773438 5.027344 -12.707031 C 3.363281 -12.519531 2.410156 -12.136719 2.003906 -11.875 C 1.617188 -11.632812 0.875 -10.988281 0.433594 -10.394531 C 0.199219 -10.058594 -0.0625 -9.648438 -0.421875 -8.210938 C -0.46875 -7.988281 -0.640625 -7.425781 -0.535156 -6.496094 C -0.457031 -5.800781 -0.0546875 -4.160156 0.234375 -3.523438 C 0.519531 -2.921875 0.820312 -2.683594 1.5 -1.964844 C 2.136719 -1.273438 2.347656 -1.171875 2.863281 -0.957031 C 3.355469 -0.761719 4.335938 -0.417969 6.503906 -0.628906 C 6.574219 -0.636719 6.628906 -0.640625 6.703125 -0.652344 C 7.953125 -0.808594 8.292969 -0.976562 8.582031 -1.316406 C 8.820312 -1.617188 8.816406 -1.8125 8.804688 -1.921875 C 8.800781 -1.957031 8.777344 -1.992188 8.773438 -2.027344 C 8.765625 -2.097656 8.757812 -2.152344 8.75 -2.222656 C 8.738281 -2.511719 8.613281 -2.804688 8.582031 -3.089844 Z M 8.523438 -3.59375 "/></g></g></g><g fill="#c81d25" fill-opacity="1"><g transform="translate(281.665202, 207.323621)"><g><path d="M 3.925781 -12.671875 C 3.03125 -12.425781 2.183594 -11.894531 1.933594 -11.722656 C 1.613281 -11.503906 1.292969 -11.125 0.75 -10.5 C 0.265625 -9.957031 0.308594 -10.214844 -0.191406 -8.710938 C -0.339844 -8.257812 -0.464844 -8.097656 -0.464844 -7.464844 C -0.484375 -6.339844 -0.472656 -5.78125 -0.421875 -5.3125 C -0.347656 -4.652344 -0.226562 -4.414062 -0.0546875 -3.996094 C 0.421875 -2.835938 -0.210938 -3.636719 1.621094 -1.851562 C 2.089844 -1.394531 2.882812 -0.925781 3.523438 -0.707031 C 4.128906 -0.503906 5.308594 -0.3125 7.367188 -0.542969 C 7.792969 -0.59375 8.671875 -0.835938 9.15625 -1.039062 C 9.433594 -1.160156 9.6875 -1.316406 9.964844 -1.4375 C 10.136719 -1.511719 10.328125 -1.585938 10.480469 -1.675781 C 10.734375 -1.832031 11.835938 -2.828125 12.007812 -3.046875 C 12.390625 -3.523438 12.449219 -4.109375 12.648438 -4.765625 C 12.929688 -5.632812 12.988281 -5.765625 12.945312 -6.304688 C 12.925781 -6.484375 12.902344 -6.660156 12.902344 -6.84375 C 12.886719 -7.148438 12.921875 -7.476562 12.886719 -7.78125 C 12.792969 -8.585938 12.421875 -9.488281 12.148438 -9.964844 C 11.742188 -10.679688 11.140625 -11.207031 10.570312 -11.757812 C 10.246094 -12.066406 10.125 -12.160156 9.394531 -12.367188 C 8.085938 -12.746094 7.460938 -12.984375 6.929688 -13.011719 C 6.710938 -13.023438 5.664062 -13.015625 5.339844 -12.976562 C 5.199219 -12.960938 4.820312 -12.917969 3.925781 -12.671875 Z M 4.050781 -7.253906 C 4.101562 -7.4375 4.246094 -7.761719 4.390625 -7.925781 C 4.535156 -8.085938 4.761719 -8.167969 4.929688 -8.277344 C 5.101562 -8.386719 5.316406 -8.554688 5.453125 -8.625 C 5.558594 -8.671875 5.75 -8.714844 5.839844 -8.722656 C 6.234375 -8.769531 6.960938 -8.597656 7.320312 -8.457031 C 7.53125 -8.371094 7.765625 -8.214844 7.980469 -7.898438 C 8.109375 -7.730469 8.316406 -7.335938 8.359375 -6.960938 C 8.378906 -6.78125 8.355469 -6.507812 8.257812 -6.261719 C 8.15625 -6.03125 7.765625 -5.480469 7.605469 -5.300781 C 7.316406 -4.960938 7.027344 -4.960938 6.726562 -4.910156 C 6.53125 -4.871094 6.25 -4.800781 6.050781 -4.78125 C 5.605469 -4.730469 5.320312 -4.84375 5.128906 -4.929688 C 4.726562 -5.117188 4.726562 -5.136719 4.15625 -5.832031 C 4.097656 -5.898438 3.96875 -6.066406 3.917969 -6.496094 C 3.902344 -6.636719 3.996094 -7.082031 4.050781 -7.253906 Z M 4.050781 -7.253906 "/></g></g></g></svg>